<?xml version="1.0" encoding="UTF-8"?>
<svg viewBox="0 0 64 64" xmlns="http://www.w3.org/2000/svg" width="64" height="64">
  <defs>
  <radialGradient id="etile" cx="0.42" cy="0.34" r="0.85"><stop offset="0" stop-color="#3a2415"/><stop offset="0.6" stop-color="#1f130a"/><stop offset="1" stop-color="#0c0704"/></radialGradient>
  <linearGradient id="egold" x1="0" y1="0" x2="0.25" y2="1"><stop offset="0" stop-color="#fff2cf"/><stop offset="0.45" stop-color="#e6bd6a"/><stop offset="1" stop-color="#8a6a2e"/></linearGradient>
  <radialGradient id="eamb" cx="0.5" cy="0.5" r="0.5"><stop offset="0" stop-color="#e6bd6a" stop-opacity="0.22"/><stop offset="1" stop-color="#e6bd6a" stop-opacity="0"/></radialGradient>
  <filter id="esh" x="-40%" y="-40%" width="180%" height="180%"><feGaussianBlur stdDeviation="1.0"/></filter>
  <filter id="egl" x="-60%" y="-60%" width="220%" height="220%"><feGaussianBlur stdDeviation="2.0"/></filter></defs>
  <rect x="6.25" y="6.25" width="51.49" height="51.49" rx="11.52" fill="url(#etile)"/>
  <ellipse cx="32" cy="37" rx="20" ry="20" fill="url(#eamb)"/>
  <path d="M32.00 57.00C32.14 56.99 32.55 56.98 32.82 56.95C33.09 56.92 33.37 56.87 33.63 56.81C33.90 56.74 34.16 56.66 34.42 56.57C34.67 56.48 34.92 56.37 35.17 56.25C35.41 56.12 35.65 55.99 35.87 55.84C36.10 55.69 36.31 55.53 36.52 55.36C36.73 55.20 36.92 55.01 37.11 54.82C37.30 54.64 37.47 54.44 37.63 54.23C37.80 54.03 37.95 53.81 38.09 53.59C38.23 53.38 38.36 53.15 38.48 52.92C38.59 52.70 38.70 52.46 38.79 52.23C38.89 51.99 38.97 51.75 39.04 51.51C39.12 51.27 39.18 51.03 39.23 50.79C39.28 50.55 39.32 50.31 39.35 50.07C39.38 49.82 39.40 49.58 39.41 49.34C39.42 49.10 39.43 48.86 39.42 48.63C39.42 48.39 39.40 48.15 39.38 47.92C39.36 47.69 39.33 47.46 39.29 47.23C39.26 47.00 39.21 46.78 39.17 46.56C39.12 46.33 39.06 46.12 39.00 45.90C38.94 45.68 38.87 45.47 38.80 45.26C38.73 45.05 38.65 44.84 38.57 44.64C38.49 44.44 38.40 44.24 38.32 44.04C38.23 43.84 38.13 43.65 38.04 43.46C37.94 43.27 37.84 43.08 37.74 42.90C37.63 42.71 37.53 42.53 37.42 42.35C37.31 42.17 37.20 42.00 37.08 41.83C36.97 41.65 36.85 41.48 36.74 41.31C36.62 41.15 36.50 40.98 36.38 40.82C36.25 40.66 36.13 40.49 36.01 40.34C35.88 40.18 35.75 40.02 35.63 39.87C35.50 39.71 35.37 39.56 35.24 39.41C35.11 39.26 34.98 39.11 34.85 38.96C34.72 38.81 34.58 38.66 34.45 38.52C34.32 38.37 34.18 38.23 34.05 38.09C33.91 37.95 33.78 37.80 33.64 37.66C33.51 37.52 33.37 37.38 33.23 37.24C33.10 37.10 32.96 36.96 32.82 36.83C32.69 36.69 32.55 36.55 32.41 36.41C32.27 36.27 32.09 36.14 32.00 36.00C31.91 35.86 31.90 35.71 31.85 35.56C31.80 35.41 31.75 35.26 31.71 35.11C31.66 34.97 31.61 34.82 31.56 34.67C31.51 34.52 31.46 34.37 31.41 34.22C31.36 34.07 31.32 33.92 31.27 33.76C31.22 33.61 31.17 33.46 31.12 33.30C31.08 33.14 31.03 32.99 30.98 32.83C30.94 32.67 30.89 32.51 30.84 32.35C30.80 32.19 30.75 32.02 30.70 31.86C30.66 31.69 30.61 31.52 30.57 31.35C30.52 31.18 30.48 31.01 30.44 30.84C30.39 30.66 30.35 30.49 30.31 30.31C30.27 30.13 30.23 29.94 30.18 29.76C30.14 29.57 30.10 29.38 30.07 29.19C30.03 29.00 29.99 28.81 29.95 28.61C29.91 28.41 29.88 28.21 29.84 28.01C29.81 27.80 29.78 27.59 29.74 27.38C29.71 27.17 29.68 26.96 29.65 26.74C29.62 26.52 29.60 26.30 29.57 26.08C29.55 25.85 29.52 25.62 29.50 25.39C29.48 25.16 29.46 24.93 29.44 24.69C29.42 24.45 29.41 24.21 29.39 23.97C29.38 23.72 29.37 23.48 29.36 23.23C29.36 22.98 29.35 22.72 29.35 22.47C29.35 22.22 29.35 21.96 29.35 21.70C29.36 21.45 29.36 21.19 29.38 20.93C29.39 20.67 29.40 20.41 29.42 20.15C29.44 19.89 29.46 19.63 29.48 19.38C29.51 19.12 29.54 18.87 29.57 18.61C29.61 18.36 29.65 18.11 29.69 17.87C29.73 17.62 29.77 17.38 29.83 17.15C29.88 16.92 29.93 16.69 29.99 16.47C30.05 16.25 30.11 16.03 30.18 15.83C30.24 15.63 30.31 15.43 30.39 15.25C30.46 15.07 30.54 14.90 30.62 14.74C30.70 14.58 30.78 14.44 30.87 14.31C30.96 14.18 31.05 14.06 31.14 13.96C31.23 13.86 31.32 13.77 31.42 13.71C31.51 13.64 31.61 13.59 31.71 13.55C31.80 13.52 31.90 13.50 32.00 13.50C32.10 13.50 32.20 13.52 32.29 13.55C32.39 13.59 32.49 13.64 32.58 13.71C32.68 13.77 32.77 13.86 32.86 13.96C32.95 14.06 33.04 14.18 33.13 14.31C33.22 14.44 33.30 14.58 33.38 14.74C33.46 14.90 33.54 15.07 33.61 15.25C33.69 15.43 33.76 15.63 33.82 15.83C33.89 16.03 33.95 16.25 34.01 16.47C34.07 16.69 34.12 16.92 34.17 17.15C34.23 17.38 34.27 17.62 34.31 17.87C34.35 18.11 34.39 18.36 34.43 18.61C34.46 18.87 34.49 19.12 34.52 19.38C34.54 19.63 34.56 19.89 34.58 20.15C34.60 20.41 34.61 20.67 34.62 20.93C34.64 21.19 34.64 21.45 34.65 21.70C34.65 21.96 34.65 22.22 34.65 22.47C34.65 22.72 34.64 22.98 34.64 23.23C34.63 23.48 34.62 23.72 34.61 23.97C34.59 24.21 34.58 24.45 34.56 24.69C34.54 24.93 34.52 25.16 34.50 25.39C34.48 25.62 34.45 25.85 34.43 26.08C34.40 26.30 34.38 26.52 34.35 26.74C34.32 26.96 34.29 27.17 34.26 27.38C34.22 27.59 34.19 27.80 34.16 28.01C34.12 28.21 34.09 28.41 34.05 28.61C34.01 28.81 33.97 29.00 33.93 29.19C33.90 29.38 33.86 29.57 33.82 29.76C33.77 29.94 33.73 30.13 33.69 30.31C33.65 30.49 33.61 30.66 33.56 30.84C33.52 31.01 33.48 31.18 33.43 31.35C33.39 31.52 33.34 31.69 33.30 31.86C33.25 32.02 33.20 32.19 33.16 32.35C33.11 32.51 33.06 32.67 33.02 32.83C32.97 32.99 32.92 33.14 32.88 33.30C32.83 33.46 32.78 33.61 32.73 33.76C32.68 33.92 32.64 34.07 32.59 34.22C32.54 34.37 32.49 34.52 32.44 34.67C32.39 34.82 32.34 34.97 32.29 35.11C32.25 35.26 32.20 35.41 32.15 35.56C32.10 35.71 32.09 35.86 32.00 36.00C31.91 36.14 31.73 36.27 31.59 36.41C31.45 36.55 31.31 36.69 31.18 36.83C31.04 36.96 30.90 37.10 30.77 37.24C30.63 37.38 30.49 37.52 30.36 37.66C30.22 37.80 30.09 37.95 29.95 38.09C29.82 38.23 29.68 38.37 29.55 38.52C29.42 38.66 29.28 38.81 29.15 38.96C29.02 39.11 28.89 39.26 28.76 39.41C28.63 39.56 28.50 39.71 28.37 39.87C28.25 40.02 28.12 40.18 27.99 40.34C27.87 40.49 27.75 40.66 27.62 40.82C27.50 40.98 27.38 41.15 27.26 41.31C27.15 41.48 27.03 41.65 26.92 41.83C26.80 42.00 26.69 42.17 26.58 42.35C26.47 42.53 26.37 42.71 26.26 42.90C26.16 43.08 26.06 43.27 25.96 43.46C25.87 43.65 25.77 43.84 25.68 44.04C25.60 44.24 25.51 44.44 25.43 44.64C25.35 44.84 25.27 45.05 25.20 45.26C25.13 45.47 25.06 45.68 25.00 45.90C24.94 46.12 24.88 46.33 24.83 46.56C24.79 46.78 24.74 47.00 24.71 47.23C24.67 47.46 24.64 47.69 24.62 47.92C24.60 48.15 24.58 48.39 24.58 48.63C24.57 48.86 24.58 49.10 24.59 49.34C24.60 49.58 24.62 49.82 24.65 50.07C24.68 50.31 24.72 50.55 24.77 50.79C24.82 51.03 24.88 51.27 24.96 51.51C25.03 51.75 25.11 51.99 25.21 52.23C25.30 52.46 25.41 52.70 25.52 52.92C25.64 53.15 25.77 53.38 25.91 53.59C26.05 53.81 26.20 54.03 26.37 54.23C26.53 54.44 26.70 54.64 26.89 54.82C27.08 55.01 27.27 55.20 27.48 55.36C27.69 55.53 27.90 55.69 28.13 55.84C28.35 55.99 28.59 56.12 28.83 56.25C29.08 56.37 29.33 56.48 29.58 56.57C29.84 56.66 30.10 56.74 30.37 56.81C30.63 56.87 30.91 56.92 31.18 56.95C31.45 56.98 31.86 56.99 32.00 57.00Z" fill="none" stroke="#1a0d05" stroke-opacity="0.5" stroke-width="3.2" stroke-linecap="round" stroke-linejoin="round" transform="translate(0 1.4)" filter="url(#esh)"/>
  <path d="M32.00 57.00C32.14 56.99 32.55 56.98 32.82 56.95C33.09 56.92 33.37 56.87 33.63 56.81C33.90 56.74 34.16 56.66 34.42 56.57C34.67 56.48 34.92 56.37 35.17 56.25C35.41 56.12 35.65 55.99 35.87 55.84C36.10 55.69 36.31 55.53 36.52 55.36C36.73 55.20 36.92 55.01 37.11 54.82C37.30 54.64 37.47 54.44 37.63 54.23C37.80 54.03 37.95 53.81 38.09 53.59C38.23 53.38 38.36 53.15 38.48 52.92C38.59 52.70 38.70 52.46 38.79 52.23C38.89 51.99 38.97 51.75 39.04 51.51C39.12 51.27 39.18 51.03 39.23 50.79C39.28 50.55 39.32 50.31 39.35 50.07C39.38 49.82 39.40 49.58 39.41 49.34C39.42 49.10 39.43 48.86 39.42 48.63C39.42 48.39 39.40 48.15 39.38 47.92C39.36 47.69 39.33 47.46 39.29 47.23C39.26 47.00 39.21 46.78 39.17 46.56C39.12 46.33 39.06 46.12 39.00 45.90C38.94 45.68 38.87 45.47 38.80 45.26C38.73 45.05 38.65 44.84 38.57 44.64C38.49 44.44 38.40 44.24 38.32 44.04C38.23 43.84 38.13 43.65 38.04 43.46C37.94 43.27 37.84 43.08 37.74 42.90C37.63 42.71 37.53 42.53 37.42 42.35C37.31 42.17 37.20 42.00 37.08 41.83C36.97 41.65 36.85 41.48 36.74 41.31C36.62 41.15 36.50 40.98 36.38 40.82C36.25 40.66 36.13 40.49 36.01 40.34C35.88 40.18 35.75 40.02 35.63 39.87C35.50 39.71 35.37 39.56 35.24 39.41C35.11 39.26 34.98 39.11 34.85 38.96C34.72 38.81 34.58 38.66 34.45 38.52C34.32 38.37 34.18 38.23 34.05 38.09C33.91 37.95 33.78 37.80 33.64 37.66C33.51 37.52 33.37 37.38 33.23 37.24C33.10 37.10 32.96 36.96 32.82 36.83C32.69 36.69 32.55 36.55 32.41 36.41C32.27 36.27 32.09 36.14 32.00 36.00C31.91 35.86 31.90 35.71 31.85 35.56C31.80 35.41 31.75 35.26 31.71 35.11C31.66 34.97 31.61 34.82 31.56 34.67C31.51 34.52 31.46 34.37 31.41 34.22C31.36 34.07 31.32 33.92 31.27 33.76C31.22 33.61 31.17 33.46 31.12 33.30C31.08 33.14 31.03 32.99 30.98 32.83C30.94 32.67 30.89 32.51 30.84 32.35C30.80 32.19 30.75 32.02 30.70 31.86C30.66 31.69 30.61 31.52 30.57 31.35C30.52 31.18 30.48 31.01 30.44 30.84C30.39 30.66 30.35 30.49 30.31 30.31C30.27 30.13 30.23 29.94 30.18 29.76C30.14 29.57 30.10 29.38 30.07 29.19C30.03 29.00 29.99 28.81 29.95 28.61C29.91 28.41 29.88 28.21 29.84 28.01C29.81 27.80 29.78 27.59 29.74 27.38C29.71 27.17 29.68 26.96 29.65 26.74C29.62 26.52 29.60 26.30 29.57 26.08C29.55 25.85 29.52 25.62 29.50 25.39C29.48 25.16 29.46 24.93 29.44 24.69C29.42 24.45 29.41 24.21 29.39 23.97C29.38 23.72 29.37 23.48 29.36 23.23C29.36 22.98 29.35 22.72 29.35 22.47C29.35 22.22 29.35 21.96 29.35 21.70C29.36 21.45 29.36 21.19 29.38 20.93C29.39 20.67 29.40 20.41 29.42 20.15C29.44 19.89 29.46 19.63 29.48 19.38C29.51 19.12 29.54 18.87 29.57 18.61C29.61 18.36 29.65 18.11 29.69 17.87C29.73 17.62 29.77 17.38 29.83 17.15C29.88 16.92 29.93 16.69 29.99 16.47C30.05 16.25 30.11 16.03 30.18 15.83C30.24 15.63 30.31 15.43 30.39 15.25C30.46 15.07 30.54 14.90 30.62 14.74C30.70 14.58 30.78 14.44 30.87 14.31C30.96 14.18 31.05 14.06 31.14 13.96C31.23 13.86 31.32 13.77 31.42 13.71C31.51 13.64 31.61 13.59 31.71 13.55C31.80 13.52 31.90 13.50 32.00 13.50C32.10 13.50 32.20 13.52 32.29 13.55C32.39 13.59 32.49 13.64 32.58 13.71C32.68 13.77 32.77 13.86 32.86 13.96C32.95 14.06 33.04 14.18 33.13 14.31C33.22 14.44 33.30 14.58 33.38 14.74C33.46 14.90 33.54 15.07 33.61 15.25C33.69 15.43 33.76 15.63 33.82 15.83C33.89 16.03 33.95 16.25 34.01 16.47C34.07 16.69 34.12 16.92 34.17 17.15C34.23 17.38 34.27 17.62 34.31 17.87C34.35 18.11 34.39 18.36 34.43 18.61C34.46 18.87 34.49 19.12 34.52 19.38C34.54 19.63 34.56 19.89 34.58 20.15C34.60 20.41 34.61 20.67 34.62 20.93C34.64 21.19 34.64 21.45 34.65 21.70C34.65 21.96 34.65 22.22 34.65 22.47C34.65 22.72 34.64 22.98 34.64 23.23C34.63 23.48 34.62 23.72 34.61 23.97C34.59 24.21 34.58 24.45 34.56 24.69C34.54 24.93 34.52 25.16 34.50 25.39C34.48 25.62 34.45 25.85 34.43 26.08C34.40 26.30 34.38 26.52 34.35 26.74C34.32 26.96 34.29 27.17 34.26 27.38C34.22 27.59 34.19 27.80 34.16 28.01C34.12 28.21 34.09 28.41 34.05 28.61C34.01 28.81 33.97 29.00 33.93 29.19C33.90 29.38 33.86 29.57 33.82 29.76C33.77 29.94 33.73 30.13 33.69 30.31C33.65 30.49 33.61 30.66 33.56 30.84C33.52 31.01 33.48 31.18 33.43 31.35C33.39 31.52 33.34 31.69 33.30 31.86C33.25 32.02 33.20 32.19 33.16 32.35C33.11 32.51 33.06 32.67 33.02 32.83C32.97 32.99 32.92 33.14 32.88 33.30C32.83 33.46 32.78 33.61 32.73 33.76C32.68 33.92 32.64 34.07 32.59 34.22C32.54 34.37 32.49 34.52 32.44 34.67C32.39 34.82 32.34 34.97 32.29 35.11C32.25 35.26 32.20 35.41 32.15 35.56C32.10 35.71 32.09 35.86 32.00 36.00C31.91 36.14 31.73 36.27 31.59 36.41C31.45 36.55 31.31 36.69 31.18 36.83C31.04 36.96 30.90 37.10 30.77 37.24C30.63 37.38 30.49 37.52 30.36 37.66C30.22 37.80 30.09 37.95 29.95 38.09C29.82 38.23 29.68 38.37 29.55 38.52C29.42 38.66 29.28 38.81 29.15 38.96C29.02 39.11 28.89 39.26 28.76 39.41C28.63 39.56 28.50 39.71 28.37 39.87C28.25 40.02 28.12 40.18 27.99 40.34C27.87 40.49 27.75 40.66 27.62 40.82C27.50 40.98 27.38 41.15 27.26 41.31C27.15 41.48 27.03 41.65 26.92 41.83C26.80 42.00 26.69 42.17 26.58 42.35C26.47 42.53 26.37 42.71 26.26 42.90C26.16 43.08 26.06 43.27 25.96 43.46C25.87 43.65 25.77 43.84 25.68 44.04C25.60 44.24 25.51 44.44 25.43 44.64C25.35 44.84 25.27 45.05 25.20 45.26C25.13 45.47 25.06 45.68 25.00 45.90C24.94 46.12 24.88 46.33 24.83 46.56C24.79 46.78 24.74 47.00 24.71 47.23C24.67 47.46 24.64 47.69 24.62 47.92C24.60 48.15 24.58 48.39 24.58 48.63C24.57 48.86 24.58 49.10 24.59 49.34C24.60 49.58 24.62 49.82 24.65 50.07C24.68 50.31 24.72 50.55 24.77 50.79C24.82 51.03 24.88 51.27 24.96 51.51C25.03 51.75 25.11 51.99 25.21 52.23C25.30 52.46 25.41 52.70 25.52 52.92C25.64 53.15 25.77 53.38 25.91 53.59C26.05 53.81 26.20 54.03 26.37 54.23C26.53 54.44 26.70 54.64 26.89 54.82C27.08 55.01 27.27 55.20 27.48 55.36C27.69 55.53 27.90 55.69 28.13 55.84C28.35 55.99 28.59 56.12 28.83 56.25C29.08 56.37 29.33 56.48 29.58 56.57C29.84 56.66 30.10 56.74 30.37 56.81C30.63 56.87 30.91 56.92 31.18 56.95C31.45 56.98 31.86 56.99 32.00 57.00Z" fill="none" stroke="#e6bd6a" stroke-opacity="0.35" stroke-width="5.2" stroke-linecap="round" stroke-linejoin="round" filter="url(#egl)"/>
  <path d="M32.00 57.00C32.14 56.99 32.55 56.98 32.82 56.95C33.09 56.92 33.37 56.87 33.63 56.81C33.90 56.74 34.16 56.66 34.42 56.57C34.67 56.48 34.92 56.37 35.17 56.25C35.41 56.12 35.65 55.99 35.87 55.84C36.10 55.69 36.31 55.53 36.52 55.36C36.73 55.20 36.92 55.01 37.11 54.82C37.30 54.64 37.47 54.44 37.63 54.23C37.80 54.03 37.95 53.81 38.09 53.59C38.23 53.38 38.36 53.15 38.48 52.92C38.59 52.70 38.70 52.46 38.79 52.23C38.89 51.99 38.97 51.75 39.04 51.51C39.12 51.27 39.18 51.03 39.23 50.79C39.28 50.55 39.32 50.31 39.35 50.07C39.38 49.82 39.40 49.58 39.41 49.34C39.42 49.10 39.43 48.86 39.42 48.63C39.42 48.39 39.40 48.15 39.38 47.92C39.36 47.69 39.33 47.46 39.29 47.23C39.26 47.00 39.21 46.78 39.17 46.56C39.12 46.33 39.06 46.12 39.00 45.90C38.94 45.68 38.87 45.47 38.80 45.26C38.73 45.05 38.65 44.84 38.57 44.64C38.49 44.44 38.40 44.24 38.32 44.04C38.23 43.84 38.13 43.65 38.04 43.46C37.94 43.27 37.84 43.08 37.74 42.90C37.63 42.71 37.53 42.53 37.42 42.35C37.31 42.17 37.20 42.00 37.08 41.83C36.97 41.65 36.85 41.48 36.74 41.31C36.62 41.15 36.50 40.98 36.38 40.82C36.25 40.66 36.13 40.49 36.01 40.34C35.88 40.18 35.75 40.02 35.63 39.87C35.50 39.71 35.37 39.56 35.24 39.41C35.11 39.26 34.98 39.11 34.85 38.96C34.72 38.81 34.58 38.66 34.45 38.52C34.32 38.37 34.18 38.23 34.05 38.09C33.91 37.95 33.78 37.80 33.64 37.66C33.51 37.52 33.37 37.38 33.23 37.24C33.10 37.10 32.96 36.96 32.82 36.83C32.69 36.69 32.55 36.55 32.41 36.41C32.27 36.27 32.09 36.14 32.00 36.00C31.91 35.86 31.90 35.71 31.85 35.56C31.80 35.41 31.75 35.26 31.71 35.11C31.66 34.97 31.61 34.82 31.56 34.67C31.51 34.52 31.46 34.37 31.41 34.22C31.36 34.07 31.32 33.92 31.27 33.76C31.22 33.61 31.17 33.46 31.12 33.30C31.08 33.14 31.03 32.99 30.98 32.83C30.94 32.67 30.89 32.51 30.84 32.35C30.80 32.19 30.75 32.02 30.70 31.86C30.66 31.69 30.61 31.52 30.57 31.35C30.52 31.18 30.48 31.01 30.44 30.84C30.39 30.66 30.35 30.49 30.31 30.31C30.27 30.13 30.23 29.94 30.18 29.76C30.14 29.57 30.10 29.38 30.07 29.19C30.03 29.00 29.99 28.81 29.95 28.61C29.91 28.41 29.88 28.21 29.84 28.01C29.81 27.80 29.78 27.59 29.74 27.38C29.71 27.17 29.68 26.96 29.65 26.74C29.62 26.52 29.60 26.30 29.57 26.08C29.55 25.85 29.52 25.62 29.50 25.39C29.48 25.16 29.46 24.93 29.44 24.69C29.42 24.45 29.41 24.21 29.39 23.97C29.38 23.72 29.37 23.48 29.36 23.23C29.36 22.98 29.35 22.72 29.35 22.47C29.35 22.22 29.35 21.96 29.35 21.70C29.36 21.45 29.36 21.19 29.38 20.93C29.39 20.67 29.40 20.41 29.42 20.15C29.44 19.89 29.46 19.63 29.48 19.38C29.51 19.12 29.54 18.87 29.57 18.61C29.61 18.36 29.65 18.11 29.69 17.87C29.73 17.62 29.77 17.38 29.83 17.15C29.88 16.92 29.93 16.69 29.99 16.47C30.05 16.25 30.11 16.03 30.18 15.83C30.24 15.63 30.31 15.43 30.39 15.25C30.46 15.07 30.54 14.90 30.62 14.74C30.70 14.58 30.78 14.44 30.87 14.31C30.96 14.18 31.05 14.06 31.14 13.96C31.23 13.86 31.32 13.77 31.42 13.71C31.51 13.64 31.61 13.59 31.71 13.55C31.80 13.52 31.90 13.50 32.00 13.50C32.10 13.50 32.20 13.52 32.29 13.55C32.39 13.59 32.49 13.64 32.58 13.71C32.68 13.77 32.77 13.86 32.86 13.96C32.95 14.06 33.04 14.18 33.13 14.31C33.22 14.44 33.30 14.58 33.38 14.74C33.46 14.90 33.54 15.07 33.61 15.25C33.69 15.43 33.76 15.63 33.82 15.83C33.89 16.03 33.95 16.25 34.01 16.47C34.07 16.69 34.12 16.92 34.17 17.15C34.23 17.38 34.27 17.62 34.31 17.87C34.35 18.11 34.39 18.36 34.43 18.61C34.46 18.87 34.49 19.12 34.52 19.38C34.54 19.63 34.56 19.89 34.58 20.15C34.60 20.41 34.61 20.67 34.62 20.93C34.64 21.19 34.64 21.45 34.65 21.70C34.65 21.96 34.65 22.22 34.65 22.47C34.65 22.72 34.64 22.98 34.64 23.23C34.63 23.48 34.62 23.72 34.61 23.97C34.59 24.21 34.58 24.45 34.56 24.69C34.54 24.93 34.52 25.16 34.50 25.39C34.48 25.62 34.45 25.85 34.43 26.08C34.40 26.30 34.38 26.52 34.35 26.74C34.32 26.96 34.29 27.17 34.26 27.38C34.22 27.59 34.19 27.80 34.16 28.01C34.12 28.21 34.09 28.41 34.05 28.61C34.01 28.81 33.97 29.00 33.93 29.19C33.90 29.38 33.86 29.57 33.82 29.76C33.77 29.94 33.73 30.13 33.69 30.31C33.65 30.49 33.61 30.66 33.56 30.84C33.52 31.01 33.48 31.18 33.43 31.35C33.39 31.52 33.34 31.69 33.30 31.86C33.25 32.02 33.20 32.19 33.16 32.35C33.11 32.51 33.06 32.67 33.02 32.83C32.97 32.99 32.92 33.14 32.88 33.30C32.83 33.46 32.78 33.61 32.73 33.76C32.68 33.92 32.64 34.07 32.59 34.22C32.54 34.37 32.49 34.52 32.44 34.67C32.39 34.82 32.34 34.97 32.29 35.11C32.25 35.26 32.20 35.41 32.15 35.56C32.10 35.71 32.09 35.86 32.00 36.00C31.91 36.14 31.73 36.27 31.59 36.41C31.45 36.55 31.31 36.69 31.18 36.83C31.04 36.96 30.90 37.10 30.77 37.24C30.63 37.38 30.49 37.52 30.36 37.66C30.22 37.80 30.09 37.95 29.95 38.09C29.82 38.23 29.68 38.37 29.55 38.52C29.42 38.66 29.28 38.81 29.15 38.96C29.02 39.11 28.89 39.26 28.76 39.41C28.63 39.56 28.50 39.71 28.37 39.87C28.25 40.02 28.12 40.18 27.99 40.34C27.87 40.49 27.75 40.66 27.62 40.82C27.50 40.98 27.38 41.15 27.26 41.31C27.15 41.48 27.03 41.65 26.92 41.83C26.80 42.00 26.69 42.17 26.58 42.35C26.47 42.53 26.37 42.71 26.26 42.90C26.16 43.08 26.06 43.27 25.96 43.46C25.87 43.65 25.77 43.84 25.68 44.04C25.60 44.24 25.51 44.44 25.43 44.64C25.35 44.84 25.27 45.05 25.20 45.26C25.13 45.47 25.06 45.68 25.00 45.90C24.94 46.12 24.88 46.33 24.83 46.56C24.79 46.78 24.74 47.00 24.71 47.23C24.67 47.46 24.64 47.69 24.62 47.92C24.60 48.15 24.58 48.39 24.58 48.63C24.57 48.86 24.58 49.10 24.59 49.34C24.60 49.58 24.62 49.82 24.65 50.07C24.68 50.31 24.72 50.55 24.77 50.79C24.82 51.03 24.88 51.27 24.96 51.51C25.03 51.75 25.11 51.99 25.21 52.23C25.30 52.46 25.41 52.70 25.52 52.92C25.64 53.15 25.77 53.38 25.91 53.59C26.05 53.81 26.20 54.03 26.37 54.23C26.53 54.44 26.70 54.64 26.89 54.82C27.08 55.01 27.27 55.20 27.48 55.36C27.69 55.53 27.90 55.69 28.13 55.84C28.35 55.99 28.59 56.12 28.83 56.25C29.08 56.37 29.33 56.48 29.58 56.57C29.84 56.66 30.10 56.74 30.37 56.81C30.63 56.87 30.91 56.92 31.18 56.95C31.45 56.98 31.86 56.99 32.00 57.00Z" fill="none" stroke="url(#egold)" stroke-width="3.2" stroke-linecap="round" stroke-linejoin="round"/>
</svg>