<?xml version="1.0" encoding="UTF-8"?>
<svg viewBox="0 0 64 64" xmlns="http://www.w3.org/2000/svg" width="64" height="64">
  <defs>
    <radialGradient id="sttile" cx="0.42" cy="0.34" r="0.85"><stop offset="0" stop-color="#34210f"/><stop offset="0.6" stop-color="#1c1207"/><stop offset="1" stop-color="#0a0603"/></radialGradient>
    <linearGradient id="strim" x1="0" y1="0" x2="0.4" y2="1"><stop offset="0" stop-color="#fff0c8"/><stop offset="0.5" stop-color="#d8a35a"/><stop offset="1" stop-color="#7a5320"/></linearGradient>
    <linearGradient id="stcup" x1="0" y1="0" x2="0" y2="1"><stop offset="0" stop-color="#4a3018"/><stop offset="1" stop-color="#24160a"/></linearGradient></defs>
  
  <rect x="6.25" y="6.25" width="51.49" height="51.49" rx="11.52" fill="url(#sttile)"/>
  <g transform="translate(32 24) scale(0.4600) translate(-34.05 -30.70)" opacity="0.95">
    <path d="M47.75 29.79 L47.81 30.31 L47.87 30.83 L47.91 31.34 L47.95 31.86 L47.97 32.36 L47.98 32.85 L47.98 33.34 L47.97 33.80 L47.94 34.25 L47.91 34.68 L47.87 35.09 L47.82 35.48 L47.76 35.83 L47.69 36.16 L47.62 36.46 L47.54 36.73 L47.47 36.96 L47.40 37.15 L47.33 37.31 L47.28 37.43 L47.24 37.52 L47.21 37.58 L47.21 37.61 L47.22 37.62 L47.25 37.62 L47.30 37.62 L47.35 37.62 L47.39 37.62 L47.43 37.64 L47.43 37.66 L47.41 37.68 L47.34 37.71 L47.24 37.73 L47.09 37.73 L46.89 37.72 L46.66 37.69 L46.38 37.63 L46.07 37.54 L45.72 37.43 L45.35 37.29 L44.94 37.11 L44.51 36.91 L44.05 36.68 L43.58 36.42 L43.08 36.13 L42.57 35.82 L42.03 35.49 L41.49 35.13 L40.93 34.74 L40.36 34.34 L39.77 33.92 L39.18 33.48 L38.57 33.03 L37.96 32.56 L37.34 32.08 L36.71 31.59 L36.08 31.09 L35.44 30.59 L34.80 30.08 L34.16 29.56 L33.51 29.05 L32.86 28.53 L32.20 28.02 L31.55 27.51 L30.90 27.00 L30.25 26.50 L29.59 26.01 L28.94 25.53 L28.30 25.06 L27.65 24.60 L27.01 24.16 L26.37 23.73 L25.73 23.33 L25.10 22.94 L24.47 22.57 L23.85 22.22 L23.23 21.89 L22.62 21.59 L22.02 21.32 L21.41 21.07 L20.82 20.85 L20.23 20.66 L19.64 20.50 L19.06 20.37 L18.48 20.28 L17.91 20.22 L17.35 20.20 L16.80 20.22 L16.26 20.28 L15.73 20.39 L15.22 20.54 L14.73 20.74 L14.27 20.98 L13.84 21.25 L13.44 21.57 L13.08 21.91 L12.75 22.28 L12.46 22.68 L12.20 23.10 L11.97 23.54 L11.77 24.00 L11.59 24.47 L11.44 24.95 L11.31 25.46 L11.20 25.97 L11.12 26.50 L11.05 27.05 L11.00 27.60 L10.97 28.17 L10.96 28.75 L10.96 29.34 L10.98 29.93 L11.02 30.54 L11.07 31.15 L11.14 31.76 L11.22 32.38 L11.32 33.00 L11.43 33.62 L11.56 34.24 L11.70 34.85 L11.85 35.46 L12.02 36.07 L12.20 36.67 L12.39 37.25 L12.60 37.83 L12.81 38.39 L13.04 38.94 L13.28 39.47 L13.52 39.98 L13.78 40.47 L14.05 40.94 L14.32 41.38 L14.60 41.80 L14.89 42.19 L15.18 42.55 L15.47 42.88 L15.77 43.18 L16.07 43.45 L16.36 43.68 L16.65 43.87 L16.94 44.03 L17.21 44.15 L17.48 44.25 L17.73 44.31 L17.98 44.34 L18.21 44.35 L18.43 44.33 L18.64 44.29 L18.86 44.23 L19.07 44.16 L19.29 44.06 L19.52 43.94 L19.76 43.80 L20.01 43.63 L20.27 43.43 L20.55 43.21 L20.83 42.96 L21.13 42.67 L21.44 42.36 L21.76 42.01 L22.08 41.63 L22.42 41.23 L22.76 40.80 L23.10 40.34 L23.46 39.85 L23.82 39.33 L24.18 38.80 L24.55 38.23 L24.93 37.65 L25.30 37.05 L25.69 36.43 L26.07 35.79 L26.46 35.13 L26.85 34.47 L27.25 33.79 L27.64 33.09 L28.04 32.39 L28.45 31.68 L28.85 30.97 L29.26 30.25 L29.67 29.53 L30.08 28.81 L30.49 28.09 L30.91 27.37 L31.32 26.66 L31.75 25.95 L32.17 25.25 L32.59 24.55 L33.02 23.87 L33.45 23.19 L33.89 22.53 L34.32 21.89 L34.77 21.26 L35.21 20.64 L35.66 20.04 L36.12 19.46 L36.59 18.89 L37.06 18.35 L37.54 17.83 L38.04 17.32 L38.54 16.84 L39.06 16.39 L39.61 15.95 L40.17 15.55 L40.75 15.17 L41.36 14.83 L42.00 14.52 L42.67 14.26 L43.37 14.05 L44.09 13.89 L44.84 13.80 L45.60 13.77 L46.37 13.82 L47.13 13.94 L47.87 14.13 L48.59 14.38 L49.27 14.70 L49.91 15.06 L50.52 15.47 L51.08 15.91 L51.60 16.38 L52.09 16.89 L52.55 17.41 L52.97 17.95 L53.37 18.52 L53.74 19.10 L54.08 19.69 L54.41 20.31 L54.71 20.93 L54.99 21.57 L55.26 22.22 L55.50 22.89 L55.73 23.56 L55.94 24.25 L56.14 24.94 L56.31 25.64 L56.47 26.35 L56.62 27.06 L56.75 27.78 L56.86 28.51" fill="none" stroke="url(#strim)" stroke-width="1.6" stroke-linecap="round"/>
  </g>
  <path d="M20 38 L44 38 L41.5 51 Q41 53.5 38.5 53.5 L25.5 53.5 Q23 53.5 22.5 51 Z" fill="url(#stcup)" stroke="url(#strim)" stroke-width="1.8" stroke-linejoin="round"/>
  <ellipse cx="32" cy="38" rx="12" ry="2.6" fill="#1a0d05" stroke="url(#strim)" stroke-width="1.6"/>
  <path d="M44 40 Q50 41 49 45 Q48 48.5 43.5 48" fill="none" stroke="url(#strim)" stroke-width="1.8" stroke-linecap="round"/>
  <line x1="20" y1="55.5" x2="44" y2="55.5" stroke="url(#strim)" stroke-width="1.8" stroke-linecap="round"/>
</svg>