<?xml version="1.0" encoding="UTF-8"?>
<svg viewBox="0 0 64 64" xmlns="http://www.w3.org/2000/svg" width="64" height="64">
  <defs>
  <radialGradient id="ctile" cx="0.42" cy="0.34" r="0.85"><stop offset="0" stop-color="#3a2415"/><stop offset="0.6" stop-color="#1f130a"/><stop offset="1" stop-color="#0c0704"/></radialGradient>
  <linearGradient id="cgold" x1="0" y1="0" x2="0.25" y2="1"><stop offset="0" stop-color="#fff2cf"/><stop offset="0.45" stop-color="#e6bd6a"/><stop offset="1" stop-color="#8a6a2e"/></linearGradient>
  <radialGradient id="camb" cx="0.5" cy="0.5" r="0.5"><stop offset="0" stop-color="#e6bd6a" stop-opacity="0.22"/><stop offset="1" stop-color="#e6bd6a" stop-opacity="0"/></radialGradient>
  <filter id="csh" x="-40%" y="-40%" width="180%" height="180%"><feGaussianBlur stdDeviation="1.0"/></filter>
  <filter id="cgl" x="-60%" y="-60%" width="220%" height="220%"><feGaussianBlur stdDeviation="2.0"/></filter></defs>
  <rect x="6.25" y="6.25" width="51.49" height="51.49" rx="11.52" fill="url(#ctile)"/>
  <ellipse cx="32" cy="34" rx="20" ry="20" fill="url(#camb)"/>
  <path d="M32.00 53.80C32.14 53.79 32.55 53.78 32.81 53.75C33.08 53.72 33.35 53.67 33.62 53.61C33.88 53.55 34.14 53.47 34.39 53.37C34.65 53.28 34.90 53.17 35.14 53.05C35.38 52.93 35.61 52.80 35.83 52.65C36.06 52.51 36.27 52.35 36.48 52.18C36.68 52.01 36.88 51.83 37.06 51.65C37.24 51.46 37.42 51.26 37.58 51.06C37.74 50.85 37.89 50.64 38.03 50.43C38.17 50.21 38.30 49.99 38.41 49.76C38.53 49.54 38.64 49.30 38.73 49.07C38.82 48.84 38.90 48.60 38.98 48.37C39.05 48.13 39.11 47.89 39.16 47.65C39.21 47.41 39.25 47.17 39.28 46.93C39.31 46.69 39.33 46.45 39.34 46.22C39.35 45.98 39.36 45.74 39.35 45.51C39.35 45.27 39.33 45.04 39.31 44.81C39.29 44.58 39.26 44.35 39.22 44.12C39.19 43.90 39.15 43.68 39.10 43.46C39.05 43.24 38.99 43.02 38.93 42.81C38.87 42.59 38.81 42.38 38.74 42.17C38.67 41.97 38.59 41.76 38.51 41.56C38.43 41.36 38.34 41.16 38.26 40.96C38.17 40.77 38.07 40.58 37.98 40.39C37.88 40.20 37.78 40.02 37.68 39.83C37.58 39.65 37.47 39.47 37.37 39.29C37.26 39.12 37.15 38.94 37.03 38.77C36.92 38.60 36.81 38.43 36.69 38.26C36.57 38.10 36.45 37.93 36.33 37.77C36.21 37.61 36.09 37.45 35.97 37.29C35.84 37.14 35.72 36.98 35.59 36.83C35.47 36.68 35.34 36.52 35.21 36.37C35.08 36.23 34.95 36.08 34.82 35.93C34.69 35.78 34.56 35.64 34.43 35.50C34.29 35.35 34.16 35.21 34.03 35.07C33.90 34.93 33.76 34.79 33.63 34.65C33.49 34.51 33.36 34.37 33.22 34.23C33.09 34.09 32.95 33.96 32.82 33.82C32.68 33.68 32.54 33.55 32.41 33.41C32.27 33.27 32.10 33.10 32.00 33.00C31.90 32.90 31.87 32.87 31.80 32.80C31.73 32.73 31.67 32.66 31.60 32.60C31.53 32.53 31.46 32.46 31.40 32.39C31.33 32.33 31.27 32.26 31.20 32.19C31.13 32.12 31.07 32.05 31.00 31.98C30.94 31.91 30.87 31.84 30.81 31.77C30.74 31.70 30.68 31.63 30.61 31.56C30.55 31.48 30.48 31.41 30.42 31.34C30.36 31.26 30.29 31.19 30.23 31.11C30.17 31.04 30.11 30.96 30.05 30.89C29.99 30.81 29.93 30.73 29.87 30.65C29.81 30.57 29.75 30.49 29.69 30.41C29.63 30.33 29.58 30.24 29.52 30.16C29.47 30.07 29.41 29.99 29.36 29.90C29.31 29.81 29.25 29.73 29.20 29.64C29.15 29.55 29.10 29.46 29.06 29.36C29.01 29.27 28.96 29.17 28.92 29.08C28.88 28.98 28.84 28.89 28.80 28.79C28.76 28.69 28.72 28.59 28.68 28.48C28.65 28.38 28.62 28.28 28.59 28.17C28.56 28.07 28.53 27.96 28.51 27.85C28.48 27.74 28.46 27.63 28.44 27.52C28.43 27.41 28.41 27.30 28.40 27.19C28.39 27.07 28.38 26.96 28.38 26.84C28.38 26.73 28.38 26.61 28.39 26.49C28.39 26.38 28.40 26.26 28.42 26.14C28.43 26.02 28.45 25.91 28.48 25.79C28.50 25.67 28.53 25.55 28.57 25.44C28.60 25.32 28.64 25.20 28.69 25.09C28.73 24.97 28.78 24.86 28.84 24.75C28.90 24.64 28.96 24.53 29.03 24.42C29.10 24.31 29.17 24.21 29.25 24.11C29.33 24.01 29.42 23.91 29.51 23.82C29.60 23.73 29.70 23.64 29.80 23.56C29.90 23.47 30.00 23.40 30.11 23.32C30.22 23.25 30.34 23.19 30.46 23.13C30.57 23.07 30.70 23.02 30.82 22.97C30.95 22.92 31.07 22.89 31.20 22.85C31.33 22.82 31.47 22.80 31.60 22.78C31.73 22.77 31.87 22.76 32.00 22.76C32.13 22.76 32.27 22.77 32.40 22.78C32.53 22.80 32.67 22.82 32.80 22.85C32.93 22.89 33.05 22.92 33.18 22.97C33.30 23.02 33.43 23.07 33.54 23.13C33.66 23.19 33.78 23.25 33.89 23.32C34.00 23.40 34.10 23.47 34.20 23.56C34.30 23.64 34.40 23.73 34.49 23.82C34.58 23.91 34.67 24.01 34.75 24.11C34.83 24.21 34.90 24.31 34.97 24.42C35.04 24.53 35.10 24.64 35.16 24.75C35.22 24.86 35.27 24.97 35.31 25.09C35.36 25.20 35.40 25.32 35.43 25.44C35.47 25.55 35.50 25.67 35.52 25.79C35.55 25.91 35.57 26.02 35.58 26.14C35.60 26.26 35.61 26.38 35.61 26.49C35.62 26.61 35.62 26.73 35.62 26.84C35.62 26.96 35.61 27.07 35.60 27.19C35.59 27.30 35.57 27.41 35.56 27.52C35.54 27.63 35.52 27.74 35.49 27.85C35.47 27.96 35.44 28.07 35.41 28.17C35.38 28.28 35.35 28.38 35.32 28.48C35.28 28.59 35.24 28.69 35.20 28.79C35.16 28.89 35.12 28.98 35.08 29.08C35.04 29.17 34.99 29.27 34.94 29.36C34.90 29.46 34.85 29.55 34.80 29.64C34.75 29.73 34.69 29.81 34.64 29.90C34.59 29.99 34.53 30.07 34.48 30.16C34.42 30.24 34.37 30.33 34.31 30.41C34.25 30.49 34.19 30.57 34.13 30.65C34.07 30.73 34.01 30.81 33.95 30.89C33.89 30.96 33.83 31.04 33.77 31.11C33.71 31.19 33.64 31.26 33.58 31.34C33.52 31.41 33.45 31.48 33.39 31.56C33.32 31.63 33.26 31.70 33.19 31.77C33.13 31.84 33.06 31.91 33.00 31.98C32.93 32.05 32.87 32.12 32.80 32.19C32.73 32.26 32.67 32.33 32.60 32.39C32.54 32.46 32.47 32.53 32.40 32.60C32.33 32.66 32.27 32.73 32.20 32.80C32.13 32.87 32.10 32.90 32.00 33.00C31.90 33.10 31.73 33.27 31.59 33.41C31.46 33.55 31.32 33.68 31.18 33.82C31.05 33.96 30.91 34.09 30.78 34.23C30.64 34.37 30.51 34.51 30.37 34.65C30.24 34.79 30.10 34.93 29.97 35.07C29.84 35.21 29.71 35.35 29.57 35.50C29.44 35.64 29.31 35.78 29.18 35.93C29.05 36.08 28.92 36.23 28.79 36.37C28.66 36.52 28.53 36.68 28.41 36.83C28.28 36.98 28.16 37.14 28.03 37.29C27.91 37.45 27.79 37.61 27.67 37.77C27.55 37.93 27.43 38.10 27.31 38.26C27.19 38.43 27.08 38.60 26.97 38.77C26.85 38.94 26.74 39.12 26.63 39.29C26.53 39.47 26.42 39.65 26.32 39.83C26.22 40.02 26.12 40.20 26.02 40.39C25.93 40.58 25.83 40.77 25.74 40.96C25.66 41.16 25.57 41.36 25.49 41.56C25.41 41.76 25.33 41.97 25.26 42.17C25.19 42.38 25.13 42.59 25.07 42.81C25.01 43.02 24.95 43.24 24.90 43.46C24.85 43.68 24.81 43.90 24.78 44.12C24.74 44.35 24.71 44.58 24.69 44.81C24.67 45.04 24.65 45.27 24.65 45.51C24.64 45.74 24.65 45.98 24.66 46.22C24.67 46.45 24.69 46.69 24.72 46.93C24.75 47.17 24.79 47.41 24.84 47.65C24.89 47.89 24.95 48.13 25.02 48.37C25.10 48.60 25.18 48.84 25.27 49.07C25.36 49.30 25.47 49.54 25.59 49.76C25.70 49.99 25.83 50.21 25.97 50.43C26.11 50.64 26.26 50.85 26.42 51.06C26.58 51.26 26.76 51.46 26.94 51.65C27.12 51.83 27.32 52.01 27.52 52.18C27.73 52.35 27.94 52.51 28.17 52.65C28.39 52.80 28.62 52.93 28.86 53.05C29.10 53.17 29.35 53.28 29.61 53.37C29.86 53.47 30.12 53.55 30.38 53.61C30.65 53.67 30.92 53.72 31.19 53.75C31.45 53.78 31.86 53.79 32.00 53.80Z" fill="none" stroke="#1a0d05" stroke-opacity="0.5" stroke-width="3.2" stroke-linecap="round" stroke-linejoin="round" transform="translate(0 1.4)" filter="url(#csh)"/>
  <path d="M32.00 53.80C32.14 53.79 32.55 53.78 32.81 53.75C33.08 53.72 33.35 53.67 33.62 53.61C33.88 53.55 34.14 53.47 34.39 53.37C34.65 53.28 34.90 53.17 35.14 53.05C35.38 52.93 35.61 52.80 35.83 52.65C36.06 52.51 36.27 52.35 36.48 52.18C36.68 52.01 36.88 51.83 37.06 51.65C37.24 51.46 37.42 51.26 37.58 51.06C37.74 50.85 37.89 50.64 38.03 50.43C38.17 50.21 38.30 49.99 38.41 49.76C38.53 49.54 38.64 49.30 38.73 49.07C38.82 48.84 38.90 48.60 38.98 48.37C39.05 48.13 39.11 47.89 39.16 47.65C39.21 47.41 39.25 47.17 39.28 46.93C39.31 46.69 39.33 46.45 39.34 46.22C39.35 45.98 39.36 45.74 39.35 45.51C39.35 45.27 39.33 45.04 39.31 44.81C39.29 44.58 39.26 44.35 39.22 44.12C39.19 43.90 39.15 43.68 39.10 43.46C39.05 43.24 38.99 43.02 38.93 42.81C38.87 42.59 38.81 42.38 38.74 42.17C38.67 41.97 38.59 41.76 38.51 41.56C38.43 41.36 38.34 41.16 38.26 40.96C38.17 40.77 38.07 40.58 37.98 40.39C37.88 40.20 37.78 40.02 37.68 39.83C37.58 39.65 37.47 39.47 37.37 39.29C37.26 39.12 37.15 38.94 37.03 38.77C36.92 38.60 36.81 38.43 36.69 38.26C36.57 38.10 36.45 37.93 36.33 37.77C36.21 37.61 36.09 37.45 35.97 37.29C35.84 37.14 35.72 36.98 35.59 36.83C35.47 36.68 35.34 36.52 35.21 36.37C35.08 36.23 34.95 36.08 34.82 35.93C34.69 35.78 34.56 35.64 34.43 35.50C34.29 35.35 34.16 35.21 34.03 35.07C33.90 34.93 33.76 34.79 33.63 34.65C33.49 34.51 33.36 34.37 33.22 34.23C33.09 34.09 32.95 33.96 32.82 33.82C32.68 33.68 32.54 33.55 32.41 33.41C32.27 33.27 32.10 33.10 32.00 33.00C31.90 32.90 31.87 32.87 31.80 32.80C31.73 32.73 31.67 32.66 31.60 32.60C31.53 32.53 31.46 32.46 31.40 32.39C31.33 32.33 31.27 32.26 31.20 32.19C31.13 32.12 31.07 32.05 31.00 31.98C30.94 31.91 30.87 31.84 30.81 31.77C30.74 31.70 30.68 31.63 30.61 31.56C30.55 31.48 30.48 31.41 30.42 31.34C30.36 31.26 30.29 31.19 30.23 31.11C30.17 31.04 30.11 30.96 30.05 30.89C29.99 30.81 29.93 30.73 29.87 30.65C29.81 30.57 29.75 30.49 29.69 30.41C29.63 30.33 29.58 30.24 29.52 30.16C29.47 30.07 29.41 29.99 29.36 29.90C29.31 29.81 29.25 29.73 29.20 29.64C29.15 29.55 29.10 29.46 29.06 29.36C29.01 29.27 28.96 29.17 28.92 29.08C28.88 28.98 28.84 28.89 28.80 28.79C28.76 28.69 28.72 28.59 28.68 28.48C28.65 28.38 28.62 28.28 28.59 28.17C28.56 28.07 28.53 27.96 28.51 27.85C28.48 27.74 28.46 27.63 28.44 27.52C28.43 27.41 28.41 27.30 28.40 27.19C28.39 27.07 28.38 26.96 28.38 26.84C28.38 26.73 28.38 26.61 28.39 26.49C28.39 26.38 28.40 26.26 28.42 26.14C28.43 26.02 28.45 25.91 28.48 25.79C28.50 25.67 28.53 25.55 28.57 25.44C28.60 25.32 28.64 25.20 28.69 25.09C28.73 24.97 28.78 24.86 28.84 24.75C28.90 24.64 28.96 24.53 29.03 24.42C29.10 24.31 29.17 24.21 29.25 24.11C29.33 24.01 29.42 23.91 29.51 23.82C29.60 23.73 29.70 23.64 29.80 23.56C29.90 23.47 30.00 23.40 30.11 23.32C30.22 23.25 30.34 23.19 30.46 23.13C30.57 23.07 30.70 23.02 30.82 22.97C30.95 22.92 31.07 22.89 31.20 22.85C31.33 22.82 31.47 22.80 31.60 22.78C31.73 22.77 31.87 22.76 32.00 22.76C32.13 22.76 32.27 22.77 32.40 22.78C32.53 22.80 32.67 22.82 32.80 22.85C32.93 22.89 33.05 22.92 33.18 22.97C33.30 23.02 33.43 23.07 33.54 23.13C33.66 23.19 33.78 23.25 33.89 23.32C34.00 23.40 34.10 23.47 34.20 23.56C34.30 23.64 34.40 23.73 34.49 23.82C34.58 23.91 34.67 24.01 34.75 24.11C34.83 24.21 34.90 24.31 34.97 24.42C35.04 24.53 35.10 24.64 35.16 24.75C35.22 24.86 35.27 24.97 35.31 25.09C35.36 25.20 35.40 25.32 35.43 25.44C35.47 25.55 35.50 25.67 35.52 25.79C35.55 25.91 35.57 26.02 35.58 26.14C35.60 26.26 35.61 26.38 35.61 26.49C35.62 26.61 35.62 26.73 35.62 26.84C35.62 26.96 35.61 27.07 35.60 27.19C35.59 27.30 35.57 27.41 35.56 27.52C35.54 27.63 35.52 27.74 35.49 27.85C35.47 27.96 35.44 28.07 35.41 28.17C35.38 28.28 35.35 28.38 35.32 28.48C35.28 28.59 35.24 28.69 35.20 28.79C35.16 28.89 35.12 28.98 35.08 29.08C35.04 29.17 34.99 29.27 34.94 29.36C34.90 29.46 34.85 29.55 34.80 29.64C34.75 29.73 34.69 29.81 34.64 29.90C34.59 29.99 34.53 30.07 34.48 30.16C34.42 30.24 34.37 30.33 34.31 30.41C34.25 30.49 34.19 30.57 34.13 30.65C34.07 30.73 34.01 30.81 33.95 30.89C33.89 30.96 33.83 31.04 33.77 31.11C33.71 31.19 33.64 31.26 33.58 31.34C33.52 31.41 33.45 31.48 33.39 31.56C33.32 31.63 33.26 31.70 33.19 31.77C33.13 31.84 33.06 31.91 33.00 31.98C32.93 32.05 32.87 32.12 32.80 32.19C32.73 32.26 32.67 32.33 32.60 32.39C32.54 32.46 32.47 32.53 32.40 32.60C32.33 32.66 32.27 32.73 32.20 32.80C32.13 32.87 32.10 32.90 32.00 33.00C31.90 33.10 31.73 33.27 31.59 33.41C31.46 33.55 31.32 33.68 31.18 33.82C31.05 33.96 30.91 34.09 30.78 34.23C30.64 34.37 30.51 34.51 30.37 34.65C30.24 34.79 30.10 34.93 29.97 35.07C29.84 35.21 29.71 35.35 29.57 35.50C29.44 35.64 29.31 35.78 29.18 35.93C29.05 36.08 28.92 36.23 28.79 36.37C28.66 36.52 28.53 36.68 28.41 36.83C28.28 36.98 28.16 37.14 28.03 37.29C27.91 37.45 27.79 37.61 27.67 37.77C27.55 37.93 27.43 38.10 27.31 38.26C27.19 38.43 27.08 38.60 26.97 38.77C26.85 38.94 26.74 39.12 26.63 39.29C26.53 39.47 26.42 39.65 26.32 39.83C26.22 40.02 26.12 40.20 26.02 40.39C25.93 40.58 25.83 40.77 25.74 40.96C25.66 41.16 25.57 41.36 25.49 41.56C25.41 41.76 25.33 41.97 25.26 42.17C25.19 42.38 25.13 42.59 25.07 42.81C25.01 43.02 24.95 43.24 24.90 43.46C24.85 43.68 24.81 43.90 24.78 44.12C24.74 44.35 24.71 44.58 24.69 44.81C24.67 45.04 24.65 45.27 24.65 45.51C24.64 45.74 24.65 45.98 24.66 46.22C24.67 46.45 24.69 46.69 24.72 46.93C24.75 47.17 24.79 47.41 24.84 47.65C24.89 47.89 24.95 48.13 25.02 48.37C25.10 48.60 25.18 48.84 25.27 49.07C25.36 49.30 25.47 49.54 25.59 49.76C25.70 49.99 25.83 50.21 25.97 50.43C26.11 50.64 26.26 50.85 26.42 51.06C26.58 51.26 26.76 51.46 26.94 51.65C27.12 51.83 27.32 52.01 27.52 52.18C27.73 52.35 27.94 52.51 28.17 52.65C28.39 52.80 28.62 52.93 28.86 53.05C29.10 53.17 29.35 53.28 29.61 53.37C29.86 53.47 30.12 53.55 30.38 53.61C30.65 53.67 30.92 53.72 31.19 53.75C31.45 53.78 31.86 53.79 32.00 53.80Z" fill="none" stroke="#e6bd6a" stroke-opacity="0.35" stroke-width="5.2" stroke-linecap="round" stroke-linejoin="round" filter="url(#cgl)"/>
  <path d="M32.00 53.80C32.14 53.79 32.55 53.78 32.81 53.75C33.08 53.72 33.35 53.67 33.62 53.61C33.88 53.55 34.14 53.47 34.39 53.37C34.65 53.28 34.90 53.17 35.14 53.05C35.38 52.93 35.61 52.80 35.83 52.65C36.06 52.51 36.27 52.35 36.48 52.18C36.68 52.01 36.88 51.83 37.06 51.65C37.24 51.46 37.42 51.26 37.58 51.06C37.74 50.85 37.89 50.64 38.03 50.43C38.17 50.21 38.30 49.99 38.41 49.76C38.53 49.54 38.64 49.30 38.73 49.07C38.82 48.84 38.90 48.60 38.98 48.37C39.05 48.13 39.11 47.89 39.16 47.65C39.21 47.41 39.25 47.17 39.28 46.93C39.31 46.69 39.33 46.45 39.34 46.22C39.35 45.98 39.36 45.74 39.35 45.51C39.35 45.27 39.33 45.04 39.31 44.81C39.29 44.58 39.26 44.35 39.22 44.12C39.19 43.90 39.15 43.68 39.10 43.46C39.05 43.24 38.99 43.02 38.93 42.81C38.87 42.59 38.81 42.38 38.74 42.17C38.67 41.97 38.59 41.76 38.51 41.56C38.43 41.36 38.34 41.16 38.26 40.96C38.17 40.77 38.07 40.58 37.98 40.39C37.88 40.20 37.78 40.02 37.68 39.83C37.58 39.65 37.47 39.47 37.37 39.29C37.26 39.12 37.15 38.94 37.03 38.77C36.92 38.60 36.81 38.43 36.69 38.26C36.57 38.10 36.45 37.93 36.33 37.77C36.21 37.61 36.09 37.45 35.97 37.29C35.84 37.14 35.72 36.98 35.59 36.83C35.47 36.68 35.34 36.52 35.21 36.37C35.08 36.23 34.95 36.08 34.82 35.93C34.69 35.78 34.56 35.64 34.43 35.50C34.29 35.35 34.16 35.21 34.03 35.07C33.90 34.93 33.76 34.79 33.63 34.65C33.49 34.51 33.36 34.37 33.22 34.23C33.09 34.09 32.95 33.96 32.82 33.82C32.68 33.68 32.54 33.55 32.41 33.41C32.27 33.27 32.10 33.10 32.00 33.00C31.90 32.90 31.87 32.87 31.80 32.80C31.73 32.73 31.67 32.66 31.60 32.60C31.53 32.53 31.46 32.46 31.40 32.39C31.33 32.33 31.27 32.26 31.20 32.19C31.13 32.12 31.07 32.05 31.00 31.98C30.94 31.91 30.87 31.84 30.81 31.77C30.74 31.70 30.68 31.63 30.61 31.56C30.55 31.48 30.48 31.41 30.42 31.34C30.36 31.26 30.29 31.19 30.23 31.11C30.17 31.04 30.11 30.96 30.05 30.89C29.99 30.81 29.93 30.73 29.87 30.65C29.81 30.57 29.75 30.49 29.69 30.41C29.63 30.33 29.58 30.24 29.52 30.16C29.47 30.07 29.41 29.99 29.36 29.90C29.31 29.81 29.25 29.73 29.20 29.64C29.15 29.55 29.10 29.46 29.06 29.36C29.01 29.27 28.96 29.17 28.92 29.08C28.88 28.98 28.84 28.89 28.80 28.79C28.76 28.69 28.72 28.59 28.68 28.48C28.65 28.38 28.62 28.28 28.59 28.17C28.56 28.07 28.53 27.96 28.51 27.85C28.48 27.74 28.46 27.63 28.44 27.52C28.43 27.41 28.41 27.30 28.40 27.19C28.39 27.07 28.38 26.96 28.38 26.84C28.38 26.73 28.38 26.61 28.39 26.49C28.39 26.38 28.40 26.26 28.42 26.14C28.43 26.02 28.45 25.91 28.48 25.79C28.50 25.67 28.53 25.55 28.57 25.44C28.60 25.32 28.64 25.20 28.69 25.09C28.73 24.97 28.78 24.86 28.84 24.75C28.90 24.64 28.96 24.53 29.03 24.42C29.10 24.31 29.17 24.21 29.25 24.11C29.33 24.01 29.42 23.91 29.51 23.82C29.60 23.73 29.70 23.64 29.80 23.56C29.90 23.47 30.00 23.40 30.11 23.32C30.22 23.25 30.34 23.19 30.46 23.13C30.57 23.07 30.70 23.02 30.82 22.97C30.95 22.92 31.07 22.89 31.20 22.85C31.33 22.82 31.47 22.80 31.60 22.78C31.73 22.77 31.87 22.76 32.00 22.76C32.13 22.76 32.27 22.77 32.40 22.78C32.53 22.80 32.67 22.82 32.80 22.85C32.93 22.89 33.05 22.92 33.18 22.97C33.30 23.02 33.43 23.07 33.54 23.13C33.66 23.19 33.78 23.25 33.89 23.32C34.00 23.40 34.10 23.47 34.20 23.56C34.30 23.64 34.40 23.73 34.49 23.82C34.58 23.91 34.67 24.01 34.75 24.11C34.83 24.21 34.90 24.31 34.97 24.42C35.04 24.53 35.10 24.64 35.16 24.75C35.22 24.86 35.27 24.97 35.31 25.09C35.36 25.20 35.40 25.32 35.43 25.44C35.47 25.55 35.50 25.67 35.52 25.79C35.55 25.91 35.57 26.02 35.58 26.14C35.60 26.26 35.61 26.38 35.61 26.49C35.62 26.61 35.62 26.73 35.62 26.84C35.62 26.96 35.61 27.07 35.60 27.19C35.59 27.30 35.57 27.41 35.56 27.52C35.54 27.63 35.52 27.74 35.49 27.85C35.47 27.96 35.44 28.07 35.41 28.17C35.38 28.28 35.35 28.38 35.32 28.48C35.28 28.59 35.24 28.69 35.20 28.79C35.16 28.89 35.12 28.98 35.08 29.08C35.04 29.17 34.99 29.27 34.94 29.36C34.90 29.46 34.85 29.55 34.80 29.64C34.75 29.73 34.69 29.81 34.64 29.90C34.59 29.99 34.53 30.07 34.48 30.16C34.42 30.24 34.37 30.33 34.31 30.41C34.25 30.49 34.19 30.57 34.13 30.65C34.07 30.73 34.01 30.81 33.95 30.89C33.89 30.96 33.83 31.04 33.77 31.11C33.71 31.19 33.64 31.26 33.58 31.34C33.52 31.41 33.45 31.48 33.39 31.56C33.32 31.63 33.26 31.70 33.19 31.77C33.13 31.84 33.06 31.91 33.00 31.98C32.93 32.05 32.87 32.12 32.80 32.19C32.73 32.26 32.67 32.33 32.60 32.39C32.54 32.46 32.47 32.53 32.40 32.60C32.33 32.66 32.27 32.73 32.20 32.80C32.13 32.87 32.10 32.90 32.00 33.00C31.90 33.10 31.73 33.27 31.59 33.41C31.46 33.55 31.32 33.68 31.18 33.82C31.05 33.96 30.91 34.09 30.78 34.23C30.64 34.37 30.51 34.51 30.37 34.65C30.24 34.79 30.10 34.93 29.97 35.07C29.84 35.21 29.71 35.35 29.57 35.50C29.44 35.64 29.31 35.78 29.18 35.93C29.05 36.08 28.92 36.23 28.79 36.37C28.66 36.52 28.53 36.68 28.41 36.83C28.28 36.98 28.16 37.14 28.03 37.29C27.91 37.45 27.79 37.61 27.67 37.77C27.55 37.93 27.43 38.10 27.31 38.26C27.19 38.43 27.08 38.60 26.97 38.77C26.85 38.94 26.74 39.12 26.63 39.29C26.53 39.47 26.42 39.65 26.32 39.83C26.22 40.02 26.12 40.20 26.02 40.39C25.93 40.58 25.83 40.77 25.74 40.96C25.66 41.16 25.57 41.36 25.49 41.56C25.41 41.76 25.33 41.97 25.26 42.17C25.19 42.38 25.13 42.59 25.07 42.81C25.01 43.02 24.95 43.24 24.90 43.46C24.85 43.68 24.81 43.90 24.78 44.12C24.74 44.35 24.71 44.58 24.69 44.81C24.67 45.04 24.65 45.27 24.65 45.51C24.64 45.74 24.65 45.98 24.66 46.22C24.67 46.45 24.69 46.69 24.72 46.93C24.75 47.17 24.79 47.41 24.84 47.65C24.89 47.89 24.95 48.13 25.02 48.37C25.10 48.60 25.18 48.84 25.27 49.07C25.36 49.30 25.47 49.54 25.59 49.76C25.70 49.99 25.83 50.21 25.97 50.43C26.11 50.64 26.26 50.85 26.42 51.06C26.58 51.26 26.76 51.46 26.94 51.65C27.12 51.83 27.32 52.01 27.52 52.18C27.73 52.35 27.94 52.51 28.17 52.65C28.39 52.80 28.62 52.93 28.86 53.05C29.10 53.17 29.35 53.28 29.61 53.37C29.86 53.47 30.12 53.55 30.38 53.61C30.65 53.67 30.92 53.72 31.19 53.75C31.45 53.78 31.86 53.79 32.00 53.80Z" fill="none" stroke="url(#cgold)" stroke-width="3.2" stroke-linecap="round" stroke-linejoin="round"/>
  <path d="M24 50 Q32 53 40 50" fill="none" stroke="url(#cgold)" stroke-width="2.2" stroke-linecap="round" opacity="0.85"/>
</svg>