<?xml version="1.0" encoding="UTF-8"?>
<svg viewBox="0 0 64 64" xmlns="http://www.w3.org/2000/svg" width="64" height="64">
  <defs>
  <radialGradient id="dtile" cx="0.42" cy="0.34" r="0.85"><stop offset="0" stop-color="#3a2415"/><stop offset="0.6" stop-color="#1f130a"/><stop offset="1" stop-color="#0c0704"/></radialGradient>
  <linearGradient id="dgold" x1="0" y1="0" x2="0.25" y2="1"><stop offset="0" stop-color="#fff2cf"/><stop offset="0.45" stop-color="#e6bd6a"/><stop offset="1" stop-color="#8a6a2e"/></linearGradient>
  <radialGradient id="damb" cx="0.5" cy="0.5" r="0.5"><stop offset="0" stop-color="#e6bd6a" stop-opacity="0.22"/><stop offset="1" stop-color="#e6bd6a" stop-opacity="0"/></radialGradient>
  <filter id="dsh" x="-40%" y="-40%" width="180%" height="180%"><feGaussianBlur stdDeviation="1.0"/></filter>
  <filter id="dgl" x="-60%" y="-60%" width="220%" height="220%"><feGaussianBlur stdDeviation="2.0"/></filter></defs>
  <rect x="6.25" y="6.25" width="51.49" height="51.49" rx="11.52" fill="url(#dtile)"/>
  <ellipse cx="32" cy="38" rx="20" ry="20" fill="url(#damb)"/>
  
  <path d="M32 29 C24 29 18 34 18 40 C18 47 24 50.5 32 50.5 C40 50.5 46 47 46 40 C46 34 40 29 32 29 Z" fill="none" stroke="#1a0d05" stroke-opacity="0.5" stroke-width="3.2" stroke-linecap="round" stroke-linejoin="round" transform="translate(0 1.4)" filter="url(#dsh)"/>
  <path d="M32 29 C24 29 18 34 18 40 C18 47 24 50.5 32 50.5 C40 50.5 46 47 46 40 C46 34 40 29 32 29 Z" fill="none" stroke="#e6bd6a" stroke-opacity="0.35" stroke-width="5.2" stroke-linecap="round" stroke-linejoin="round" filter="url(#dgl)"/>
  <path d="M32 29 C24 29 18 34 18 40 C18 47 24 50.5 32 50.5 C40 50.5 46 47 46 40 C46 34 40 29 32 29 Z" fill="none" stroke="url(#dgold)" stroke-width="3.2" stroke-linecap="round" stroke-linejoin="round"/>
  <path d="M32 29 C36 24 27 21 31 15.5 C32.6 12.4 29.6 10.2 31.4 6" fill="none" stroke="url(#dgold)" stroke-width="2.6" stroke-linecap="round"/>
  <path d="M32 29 C36 24 27 21 31 15.5 C32.6 12.4 29.6 10.2 31.4 6" fill="none" stroke="#1a0d05" stroke-opacity="0.4" stroke-width="2.6" stroke-linecap="round" transform="translate(0 1.2)" filter="url(#dsh)"/>
</svg>