<?xml version="1.0" encoding="UTF-8"?>
<svg viewBox="0 0 64 64" xmlns="http://www.w3.org/2000/svg" width="64" height="64">
  <defs>
  <radialGradient id="btile" cx="0.42" cy="0.34" r="0.85"><stop offset="0" stop-color="#3a2415"/><stop offset="0.6" stop-color="#1f130a"/><stop offset="1" stop-color="#0c0704"/></radialGradient>
  <linearGradient id="bgold" x1="0" y1="0" x2="0.25" y2="1"><stop offset="0" stop-color="#fff2cf"/><stop offset="0.45" stop-color="#e6bd6a"/><stop offset="1" stop-color="#8a6a2e"/></linearGradient>
  <radialGradient id="bamb" cx="0.5" cy="0.5" r="0.5"><stop offset="0" stop-color="#e6bd6a" stop-opacity="0.22"/><stop offset="1" stop-color="#e6bd6a" stop-opacity="0"/></radialGradient>
  <filter id="bsh" x="-40%" y="-40%" width="180%" height="180%"><feGaussianBlur stdDeviation="1.0"/></filter>
  <filter id="bgl" x="-60%" y="-60%" width="220%" height="220%"><feGaussianBlur stdDeviation="2.0"/></filter></defs>
  <rect x="6.25" y="6.25" width="51.49" height="51.49" rx="11.52" fill="url(#btile)"/>
  <ellipse cx="32" cy="36" rx="20" ry="20" fill="url(#bamb)"/>
  <path d="M32.00 56.30C32.14 56.29 32.56 56.28 32.83 56.25C33.11 56.22 33.39 56.17 33.66 56.10C33.93 56.04 34.19 55.96 34.45 55.86C34.71 55.77 34.97 55.66 35.21 55.54C35.46 55.41 35.70 55.27 35.93 55.12C36.15 54.98 36.38 54.81 36.59 54.64C36.79 54.47 36.99 54.29 37.18 54.09C37.37 53.90 37.55 53.70 37.71 53.49C37.88 53.28 38.03 53.07 38.18 52.85C38.32 52.62 38.45 52.40 38.57 52.16C38.69 51.93 38.79 51.70 38.89 51.46C38.99 51.22 39.07 50.98 39.14 50.74C39.22 50.49 39.28 50.25 39.33 50.00C39.38 49.76 39.42 49.51 39.45 49.27C39.49 49.02 39.51 48.78 39.52 48.53C39.53 48.29 39.53 48.05 39.53 47.81C39.52 47.57 39.51 47.33 39.49 47.09C39.46 46.86 39.43 46.62 39.40 46.39C39.36 46.16 39.32 45.93 39.27 45.71C39.22 45.48 39.16 45.26 39.10 45.04C39.04 44.82 38.97 44.61 38.90 44.39C38.83 44.18 38.75 43.97 38.67 43.77C38.58 43.56 38.50 43.36 38.41 43.16C38.31 42.96 38.22 42.76 38.12 42.57C38.02 42.37 37.92 42.18 37.82 42.00C37.71 41.81 37.60 41.63 37.49 41.44C37.38 41.26 37.27 41.08 37.16 40.91C37.04 40.73 36.92 40.56 36.80 40.39C36.68 40.22 36.56 40.05 36.44 39.89C36.31 39.72 36.19 39.56 36.06 39.40C35.94 39.24 35.81 39.08 35.68 38.92C35.55 38.76 35.42 38.61 35.29 38.46C35.16 38.30 35.02 38.15 34.89 38.00C34.76 37.85 34.62 37.70 34.49 37.56C34.35 37.41 34.21 37.26 34.08 37.12C33.94 36.97 33.80 36.83 33.67 36.69C33.53 36.54 33.39 36.40 33.25 36.26C33.11 36.12 32.97 35.98 32.84 35.84C32.70 35.70 32.56 35.56 32.42 35.42C32.28 35.28 32.10 35.10 32.00 35.00C31.90 34.90 31.88 34.88 31.82 34.82C31.76 34.76 31.71 34.71 31.65 34.65C31.59 34.59 31.53 34.53 31.47 34.47C31.41 34.41 31.35 34.35 31.30 34.29C31.24 34.23 31.18 34.17 31.12 34.11C31.06 34.04 31.01 33.98 30.95 33.92C30.89 33.86 30.84 33.80 30.78 33.73C30.72 33.67 30.67 33.60 30.61 33.54C30.56 33.47 30.50 33.41 30.45 33.34C30.39 33.28 30.34 33.21 30.28 33.14C30.23 33.07 30.18 33.00 30.12 32.94C30.07 32.87 30.02 32.79 29.97 32.72C29.92 32.65 29.87 32.58 29.82 32.50C29.77 32.43 29.72 32.35 29.68 32.28C29.63 32.20 29.59 32.12 29.54 32.04C29.50 31.96 29.45 31.88 29.41 31.80C29.37 31.72 29.33 31.64 29.29 31.55C29.26 31.47 29.22 31.38 29.18 31.30C29.15 31.21 29.12 31.12 29.09 31.03C29.05 30.94 29.03 30.85 29.00 30.76C28.97 30.66 28.95 30.57 28.93 30.48C28.91 30.38 28.89 30.28 28.87 30.19C28.86 30.09 28.85 29.99 28.84 29.89C28.83 29.79 28.82 29.69 28.82 29.59C28.82 29.49 28.82 29.38 28.82 29.28C28.83 29.18 28.84 29.08 28.85 28.97C28.86 28.87 28.88 28.76 28.90 28.66C28.92 28.56 28.95 28.45 28.98 28.35C29.01 28.25 29.05 28.15 29.09 28.05C29.13 27.94 29.17 27.84 29.22 27.75C29.27 27.65 29.33 27.55 29.39 27.46C29.45 27.37 29.52 27.27 29.59 27.19C29.66 27.10 29.73 27.01 29.81 26.93C29.89 26.85 29.97 26.77 30.06 26.70C30.15 26.63 30.24 26.56 30.34 26.50C30.44 26.43 30.54 26.38 30.64 26.32C30.75 26.27 30.85 26.22 30.96 26.18C31.07 26.14 31.19 26.11 31.30 26.08C31.41 26.06 31.53 26.03 31.65 26.02C31.76 26.01 31.88 26.00 32.00 26.00C32.12 26.00 32.24 26.01 32.35 26.02C32.47 26.03 32.59 26.06 32.70 26.08C32.81 26.11 32.93 26.14 33.04 26.18C33.15 26.22 33.25 26.27 33.36 26.32C33.46 26.38 33.56 26.43 33.66 26.50C33.76 26.56 33.85 26.63 33.94 26.70C34.03 26.77 34.11 26.85 34.19 26.93C34.27 27.01 34.34 27.10 34.41 27.19C34.48 27.27 34.55 27.37 34.61 27.46C34.67 27.55 34.73 27.65 34.78 27.75C34.83 27.84 34.87 27.94 34.91 28.05C34.95 28.15 34.99 28.25 35.02 28.35C35.05 28.45 35.08 28.56 35.10 28.66C35.12 28.76 35.14 28.87 35.15 28.97C35.16 29.08 35.17 29.18 35.18 29.28C35.18 29.38 35.18 29.49 35.18 29.59C35.18 29.69 35.17 29.79 35.16 29.89C35.15 29.99 35.14 30.09 35.13 30.19C35.11 30.28 35.09 30.38 35.07 30.48C35.05 30.57 35.03 30.66 35.00 30.76C34.97 30.85 34.95 30.94 34.91 31.03C34.88 31.12 34.85 31.21 34.82 31.30C34.78 31.38 34.74 31.47 34.71 31.55C34.67 31.64 34.63 31.72 34.59 31.80C34.55 31.88 34.50 31.96 34.46 32.04C34.41 32.12 34.37 32.20 34.32 32.28C34.28 32.35 34.23 32.43 34.18 32.50C34.13 32.58 34.08 32.65 34.03 32.72C33.98 32.79 33.93 32.87 33.88 32.94C33.82 33.00 33.77 33.07 33.72 33.14C33.66 33.21 33.61 33.28 33.55 33.34C33.50 33.41 33.44 33.47 33.39 33.54C33.33 33.60 33.28 33.67 33.22 33.73C33.16 33.80 33.11 33.86 33.05 33.92C32.99 33.98 32.94 34.04 32.88 34.11C32.82 34.17 32.76 34.23 32.70 34.29C32.65 34.35 32.59 34.41 32.53 34.47C32.47 34.53 32.41 34.59 32.35 34.65C32.29 34.71 32.24 34.76 32.18 34.82C32.12 34.88 32.10 34.90 32.00 35.00C31.90 35.10 31.72 35.28 31.58 35.42C31.44 35.56 31.30 35.70 31.16 35.84C31.03 35.98 30.89 36.12 30.75 36.26C30.61 36.40 30.47 36.54 30.33 36.69C30.20 36.83 30.06 36.97 29.92 37.12C29.79 37.26 29.65 37.41 29.51 37.56C29.38 37.70 29.24 37.85 29.11 38.00C28.98 38.15 28.84 38.30 28.71 38.46C28.58 38.61 28.45 38.76 28.32 38.92C28.19 39.08 28.06 39.24 27.94 39.40C27.81 39.56 27.69 39.72 27.56 39.89C27.44 40.05 27.32 40.22 27.20 40.39C27.08 40.56 26.96 40.73 26.84 40.91C26.73 41.08 26.62 41.26 26.51 41.44C26.40 41.63 26.29 41.81 26.18 42.00C26.08 42.18 25.98 42.37 25.88 42.57C25.78 42.76 25.69 42.96 25.59 43.16C25.50 43.36 25.42 43.56 25.33 43.77C25.25 43.97 25.17 44.18 25.10 44.39C25.03 44.61 24.96 44.82 24.90 45.04C24.84 45.26 24.78 45.48 24.73 45.71C24.68 45.93 24.64 46.16 24.60 46.39C24.57 46.62 24.54 46.86 24.51 47.09C24.49 47.33 24.48 47.57 24.47 47.81C24.47 48.05 24.47 48.29 24.48 48.53C24.49 48.78 24.51 49.02 24.55 49.27C24.58 49.51 24.62 49.76 24.67 50.00C24.72 50.25 24.78 50.49 24.86 50.74C24.93 50.98 25.01 51.22 25.11 51.46C25.21 51.70 25.31 51.93 25.43 52.16C25.55 52.40 25.68 52.62 25.82 52.85C25.97 53.07 26.12 53.28 26.29 53.49C26.45 53.70 26.63 53.90 26.82 54.09C27.01 54.29 27.21 54.47 27.41 54.64C27.62 54.81 27.85 54.98 28.07 55.12C28.30 55.27 28.54 55.41 28.79 55.54C29.03 55.66 29.29 55.77 29.55 55.86C29.81 55.96 30.07 56.04 30.34 56.10C30.61 56.17 30.89 56.22 31.17 56.25C31.44 56.28 31.86 56.29 32.00 56.30Z" fill="none" stroke="#1a0d05" stroke-opacity="0.5" stroke-width="3.2" stroke-linecap="round" stroke-linejoin="round" transform="translate(0 1.4)" filter="url(#bsh)"/>
  <path d="M32.00 56.30C32.14 56.29 32.56 56.28 32.83 56.25C33.11 56.22 33.39 56.17 33.66 56.10C33.93 56.04 34.19 55.96 34.45 55.86C34.71 55.77 34.97 55.66 35.21 55.54C35.46 55.41 35.70 55.27 35.93 55.12C36.15 54.98 36.38 54.81 36.59 54.64C36.79 54.47 36.99 54.29 37.18 54.09C37.37 53.90 37.55 53.70 37.71 53.49C37.88 53.28 38.03 53.07 38.18 52.85C38.32 52.62 38.45 52.40 38.57 52.16C38.69 51.93 38.79 51.70 38.89 51.46C38.99 51.22 39.07 50.98 39.14 50.74C39.22 50.49 39.28 50.25 39.33 50.00C39.38 49.76 39.42 49.51 39.45 49.27C39.49 49.02 39.51 48.78 39.52 48.53C39.53 48.29 39.53 48.05 39.53 47.81C39.52 47.57 39.51 47.33 39.49 47.09C39.46 46.86 39.43 46.62 39.40 46.39C39.36 46.16 39.32 45.93 39.27 45.71C39.22 45.48 39.16 45.26 39.10 45.04C39.04 44.82 38.97 44.61 38.90 44.39C38.83 44.18 38.75 43.97 38.67 43.77C38.58 43.56 38.50 43.36 38.41 43.16C38.31 42.96 38.22 42.76 38.12 42.57C38.02 42.37 37.92 42.18 37.82 42.00C37.71 41.81 37.60 41.63 37.49 41.44C37.38 41.26 37.27 41.08 37.16 40.91C37.04 40.73 36.92 40.56 36.80 40.39C36.68 40.22 36.56 40.05 36.44 39.89C36.31 39.72 36.19 39.56 36.06 39.40C35.94 39.24 35.81 39.08 35.68 38.92C35.55 38.76 35.42 38.61 35.29 38.46C35.16 38.30 35.02 38.15 34.89 38.00C34.76 37.85 34.62 37.70 34.49 37.56C34.35 37.41 34.21 37.26 34.08 37.12C33.94 36.97 33.80 36.83 33.67 36.69C33.53 36.54 33.39 36.40 33.25 36.26C33.11 36.12 32.97 35.98 32.84 35.84C32.70 35.70 32.56 35.56 32.42 35.42C32.28 35.28 32.10 35.10 32.00 35.00C31.90 34.90 31.88 34.88 31.82 34.82C31.76 34.76 31.71 34.71 31.65 34.65C31.59 34.59 31.53 34.53 31.47 34.47C31.41 34.41 31.35 34.35 31.30 34.29C31.24 34.23 31.18 34.17 31.12 34.11C31.06 34.04 31.01 33.98 30.95 33.92C30.89 33.86 30.84 33.80 30.78 33.73C30.72 33.67 30.67 33.60 30.61 33.54C30.56 33.47 30.50 33.41 30.45 33.34C30.39 33.28 30.34 33.21 30.28 33.14C30.23 33.07 30.18 33.00 30.12 32.94C30.07 32.87 30.02 32.79 29.97 32.72C29.92 32.65 29.87 32.58 29.82 32.50C29.77 32.43 29.72 32.35 29.68 32.28C29.63 32.20 29.59 32.12 29.54 32.04C29.50 31.96 29.45 31.88 29.41 31.80C29.37 31.72 29.33 31.64 29.29 31.55C29.26 31.47 29.22 31.38 29.18 31.30C29.15 31.21 29.12 31.12 29.09 31.03C29.05 30.94 29.03 30.85 29.00 30.76C28.97 30.66 28.95 30.57 28.93 30.48C28.91 30.38 28.89 30.28 28.87 30.19C28.86 30.09 28.85 29.99 28.84 29.89C28.83 29.79 28.82 29.69 28.82 29.59C28.82 29.49 28.82 29.38 28.82 29.28C28.83 29.18 28.84 29.08 28.85 28.97C28.86 28.87 28.88 28.76 28.90 28.66C28.92 28.56 28.95 28.45 28.98 28.35C29.01 28.25 29.05 28.15 29.09 28.05C29.13 27.94 29.17 27.84 29.22 27.75C29.27 27.65 29.33 27.55 29.39 27.46C29.45 27.37 29.52 27.27 29.59 27.19C29.66 27.10 29.73 27.01 29.81 26.93C29.89 26.85 29.97 26.77 30.06 26.70C30.15 26.63 30.24 26.56 30.34 26.50C30.44 26.43 30.54 26.38 30.64 26.32C30.75 26.27 30.85 26.22 30.96 26.18C31.07 26.14 31.19 26.11 31.30 26.08C31.41 26.06 31.53 26.03 31.65 26.02C31.76 26.01 31.88 26.00 32.00 26.00C32.12 26.00 32.24 26.01 32.35 26.02C32.47 26.03 32.59 26.06 32.70 26.08C32.81 26.11 32.93 26.14 33.04 26.18C33.15 26.22 33.25 26.27 33.36 26.32C33.46 26.38 33.56 26.43 33.66 26.50C33.76 26.56 33.85 26.63 33.94 26.70C34.03 26.77 34.11 26.85 34.19 26.93C34.27 27.01 34.34 27.10 34.41 27.19C34.48 27.27 34.55 27.37 34.61 27.46C34.67 27.55 34.73 27.65 34.78 27.75C34.83 27.84 34.87 27.94 34.91 28.05C34.95 28.15 34.99 28.25 35.02 28.35C35.05 28.45 35.08 28.56 35.10 28.66C35.12 28.76 35.14 28.87 35.15 28.97C35.16 29.08 35.17 29.18 35.18 29.28C35.18 29.38 35.18 29.49 35.18 29.59C35.18 29.69 35.17 29.79 35.16 29.89C35.15 29.99 35.14 30.09 35.13 30.19C35.11 30.28 35.09 30.38 35.07 30.48C35.05 30.57 35.03 30.66 35.00 30.76C34.97 30.85 34.95 30.94 34.91 31.03C34.88 31.12 34.85 31.21 34.82 31.30C34.78 31.38 34.74 31.47 34.71 31.55C34.67 31.64 34.63 31.72 34.59 31.80C34.55 31.88 34.50 31.96 34.46 32.04C34.41 32.12 34.37 32.20 34.32 32.28C34.28 32.35 34.23 32.43 34.18 32.50C34.13 32.58 34.08 32.65 34.03 32.72C33.98 32.79 33.93 32.87 33.88 32.94C33.82 33.00 33.77 33.07 33.72 33.14C33.66 33.21 33.61 33.28 33.55 33.34C33.50 33.41 33.44 33.47 33.39 33.54C33.33 33.60 33.28 33.67 33.22 33.73C33.16 33.80 33.11 33.86 33.05 33.92C32.99 33.98 32.94 34.04 32.88 34.11C32.82 34.17 32.76 34.23 32.70 34.29C32.65 34.35 32.59 34.41 32.53 34.47C32.47 34.53 32.41 34.59 32.35 34.65C32.29 34.71 32.24 34.76 32.18 34.82C32.12 34.88 32.10 34.90 32.00 35.00C31.90 35.10 31.72 35.28 31.58 35.42C31.44 35.56 31.30 35.70 31.16 35.84C31.03 35.98 30.89 36.12 30.75 36.26C30.61 36.40 30.47 36.54 30.33 36.69C30.20 36.83 30.06 36.97 29.92 37.12C29.79 37.26 29.65 37.41 29.51 37.56C29.38 37.70 29.24 37.85 29.11 38.00C28.98 38.15 28.84 38.30 28.71 38.46C28.58 38.61 28.45 38.76 28.32 38.92C28.19 39.08 28.06 39.24 27.94 39.40C27.81 39.56 27.69 39.72 27.56 39.89C27.44 40.05 27.32 40.22 27.20 40.39C27.08 40.56 26.96 40.73 26.84 40.91C26.73 41.08 26.62 41.26 26.51 41.44C26.40 41.63 26.29 41.81 26.18 42.00C26.08 42.18 25.98 42.37 25.88 42.57C25.78 42.76 25.69 42.96 25.59 43.16C25.50 43.36 25.42 43.56 25.33 43.77C25.25 43.97 25.17 44.18 25.10 44.39C25.03 44.61 24.96 44.82 24.90 45.04C24.84 45.26 24.78 45.48 24.73 45.71C24.68 45.93 24.64 46.16 24.60 46.39C24.57 46.62 24.54 46.86 24.51 47.09C24.49 47.33 24.48 47.57 24.47 47.81C24.47 48.05 24.47 48.29 24.48 48.53C24.49 48.78 24.51 49.02 24.55 49.27C24.58 49.51 24.62 49.76 24.67 50.00C24.72 50.25 24.78 50.49 24.86 50.74C24.93 50.98 25.01 51.22 25.11 51.46C25.21 51.70 25.31 51.93 25.43 52.16C25.55 52.40 25.68 52.62 25.82 52.85C25.97 53.07 26.12 53.28 26.29 53.49C26.45 53.70 26.63 53.90 26.82 54.09C27.01 54.29 27.21 54.47 27.41 54.64C27.62 54.81 27.85 54.98 28.07 55.12C28.30 55.27 28.54 55.41 28.79 55.54C29.03 55.66 29.29 55.77 29.55 55.86C29.81 55.96 30.07 56.04 30.34 56.10C30.61 56.17 30.89 56.22 31.17 56.25C31.44 56.28 31.86 56.29 32.00 56.30Z" fill="none" stroke="#e6bd6a" stroke-opacity="0.35" stroke-width="5.2" stroke-linecap="round" stroke-linejoin="round" filter="url(#bgl)"/>
  <path d="M32.00 56.30C32.14 56.29 32.56 56.28 32.83 56.25C33.11 56.22 33.39 56.17 33.66 56.10C33.93 56.04 34.19 55.96 34.45 55.86C34.71 55.77 34.97 55.66 35.21 55.54C35.46 55.41 35.70 55.27 35.93 55.12C36.15 54.98 36.38 54.81 36.59 54.64C36.79 54.47 36.99 54.29 37.18 54.09C37.37 53.90 37.55 53.70 37.71 53.49C37.88 53.28 38.03 53.07 38.18 52.85C38.32 52.62 38.45 52.40 38.57 52.16C38.69 51.93 38.79 51.70 38.89 51.46C38.99 51.22 39.07 50.98 39.14 50.74C39.22 50.49 39.28 50.25 39.33 50.00C39.38 49.76 39.42 49.51 39.45 49.27C39.49 49.02 39.51 48.78 39.52 48.53C39.53 48.29 39.53 48.05 39.53 47.81C39.52 47.57 39.51 47.33 39.49 47.09C39.46 46.86 39.43 46.62 39.40 46.39C39.36 46.16 39.32 45.93 39.27 45.71C39.22 45.48 39.16 45.26 39.10 45.04C39.04 44.82 38.97 44.61 38.90 44.39C38.83 44.18 38.75 43.97 38.67 43.77C38.58 43.56 38.50 43.36 38.41 43.16C38.31 42.96 38.22 42.76 38.12 42.57C38.02 42.37 37.92 42.18 37.82 42.00C37.71 41.81 37.60 41.63 37.49 41.44C37.38 41.26 37.27 41.08 37.16 40.91C37.04 40.73 36.92 40.56 36.80 40.39C36.68 40.22 36.56 40.05 36.44 39.89C36.31 39.72 36.19 39.56 36.06 39.40C35.94 39.24 35.81 39.08 35.68 38.92C35.55 38.76 35.42 38.61 35.29 38.46C35.16 38.30 35.02 38.15 34.89 38.00C34.76 37.85 34.62 37.70 34.49 37.56C34.35 37.41 34.21 37.26 34.08 37.12C33.94 36.97 33.80 36.83 33.67 36.69C33.53 36.54 33.39 36.40 33.25 36.26C33.11 36.12 32.97 35.98 32.84 35.84C32.70 35.70 32.56 35.56 32.42 35.42C32.28 35.28 32.10 35.10 32.00 35.00C31.90 34.90 31.88 34.88 31.82 34.82C31.76 34.76 31.71 34.71 31.65 34.65C31.59 34.59 31.53 34.53 31.47 34.47C31.41 34.41 31.35 34.35 31.30 34.29C31.24 34.23 31.18 34.17 31.12 34.11C31.06 34.04 31.01 33.98 30.95 33.92C30.89 33.86 30.84 33.80 30.78 33.73C30.72 33.67 30.67 33.60 30.61 33.54C30.56 33.47 30.50 33.41 30.45 33.34C30.39 33.28 30.34 33.21 30.28 33.14C30.23 33.07 30.18 33.00 30.12 32.94C30.07 32.87 30.02 32.79 29.97 32.72C29.92 32.65 29.87 32.58 29.82 32.50C29.77 32.43 29.72 32.35 29.68 32.28C29.63 32.20 29.59 32.12 29.54 32.04C29.50 31.96 29.45 31.88 29.41 31.80C29.37 31.72 29.33 31.64 29.29 31.55C29.26 31.47 29.22 31.38 29.18 31.30C29.15 31.21 29.12 31.12 29.09 31.03C29.05 30.94 29.03 30.85 29.00 30.76C28.97 30.66 28.95 30.57 28.93 30.48C28.91 30.38 28.89 30.28 28.87 30.19C28.86 30.09 28.85 29.99 28.84 29.89C28.83 29.79 28.82 29.69 28.82 29.59C28.82 29.49 28.82 29.38 28.82 29.28C28.83 29.18 28.84 29.08 28.85 28.97C28.86 28.87 28.88 28.76 28.90 28.66C28.92 28.56 28.95 28.45 28.98 28.35C29.01 28.25 29.05 28.15 29.09 28.05C29.13 27.94 29.17 27.84 29.22 27.75C29.27 27.65 29.33 27.55 29.39 27.46C29.45 27.37 29.52 27.27 29.59 27.19C29.66 27.10 29.73 27.01 29.81 26.93C29.89 26.85 29.97 26.77 30.06 26.70C30.15 26.63 30.24 26.56 30.34 26.50C30.44 26.43 30.54 26.38 30.64 26.32C30.75 26.27 30.85 26.22 30.96 26.18C31.07 26.14 31.19 26.11 31.30 26.08C31.41 26.06 31.53 26.03 31.65 26.02C31.76 26.01 31.88 26.00 32.00 26.00C32.12 26.00 32.24 26.01 32.35 26.02C32.47 26.03 32.59 26.06 32.70 26.08C32.81 26.11 32.93 26.14 33.04 26.18C33.15 26.22 33.25 26.27 33.36 26.32C33.46 26.38 33.56 26.43 33.66 26.50C33.76 26.56 33.85 26.63 33.94 26.70C34.03 26.77 34.11 26.85 34.19 26.93C34.27 27.01 34.34 27.10 34.41 27.19C34.48 27.27 34.55 27.37 34.61 27.46C34.67 27.55 34.73 27.65 34.78 27.75C34.83 27.84 34.87 27.94 34.91 28.05C34.95 28.15 34.99 28.25 35.02 28.35C35.05 28.45 35.08 28.56 35.10 28.66C35.12 28.76 35.14 28.87 35.15 28.97C35.16 29.08 35.17 29.18 35.18 29.28C35.18 29.38 35.18 29.49 35.18 29.59C35.18 29.69 35.17 29.79 35.16 29.89C35.15 29.99 35.14 30.09 35.13 30.19C35.11 30.28 35.09 30.38 35.07 30.48C35.05 30.57 35.03 30.66 35.00 30.76C34.97 30.85 34.95 30.94 34.91 31.03C34.88 31.12 34.85 31.21 34.82 31.30C34.78 31.38 34.74 31.47 34.71 31.55C34.67 31.64 34.63 31.72 34.59 31.80C34.55 31.88 34.50 31.96 34.46 32.04C34.41 32.12 34.37 32.20 34.32 32.28C34.28 32.35 34.23 32.43 34.18 32.50C34.13 32.58 34.08 32.65 34.03 32.72C33.98 32.79 33.93 32.87 33.88 32.94C33.82 33.00 33.77 33.07 33.72 33.14C33.66 33.21 33.61 33.28 33.55 33.34C33.50 33.41 33.44 33.47 33.39 33.54C33.33 33.60 33.28 33.67 33.22 33.73C33.16 33.80 33.11 33.86 33.05 33.92C32.99 33.98 32.94 34.04 32.88 34.11C32.82 34.17 32.76 34.23 32.70 34.29C32.65 34.35 32.59 34.41 32.53 34.47C32.47 34.53 32.41 34.59 32.35 34.65C32.29 34.71 32.24 34.76 32.18 34.82C32.12 34.88 32.10 34.90 32.00 35.00C31.90 35.10 31.72 35.28 31.58 35.42C31.44 35.56 31.30 35.70 31.16 35.84C31.03 35.98 30.89 36.12 30.75 36.26C30.61 36.40 30.47 36.54 30.33 36.69C30.20 36.83 30.06 36.97 29.92 37.12C29.79 37.26 29.65 37.41 29.51 37.56C29.38 37.70 29.24 37.85 29.11 38.00C28.98 38.15 28.84 38.30 28.71 38.46C28.58 38.61 28.45 38.76 28.32 38.92C28.19 39.08 28.06 39.24 27.94 39.40C27.81 39.56 27.69 39.72 27.56 39.89C27.44 40.05 27.32 40.22 27.20 40.39C27.08 40.56 26.96 40.73 26.84 40.91C26.73 41.08 26.62 41.26 26.51 41.44C26.40 41.63 26.29 41.81 26.18 42.00C26.08 42.18 25.98 42.37 25.88 42.57C25.78 42.76 25.69 42.96 25.59 43.16C25.50 43.36 25.42 43.56 25.33 43.77C25.25 43.97 25.17 44.18 25.10 44.39C25.03 44.61 24.96 44.82 24.90 45.04C24.84 45.26 24.78 45.48 24.73 45.71C24.68 45.93 24.64 46.16 24.60 46.39C24.57 46.62 24.54 46.86 24.51 47.09C24.49 47.33 24.48 47.57 24.47 47.81C24.47 48.05 24.47 48.29 24.48 48.53C24.49 48.78 24.51 49.02 24.55 49.27C24.58 49.51 24.62 49.76 24.67 50.00C24.72 50.25 24.78 50.49 24.86 50.74C24.93 50.98 25.01 51.22 25.11 51.46C25.21 51.70 25.31 51.93 25.43 52.16C25.55 52.40 25.68 52.62 25.82 52.85C25.97 53.07 26.12 53.28 26.29 53.49C26.45 53.70 26.63 53.90 26.82 54.09C27.01 54.29 27.21 54.47 27.41 54.64C27.62 54.81 27.85 54.98 28.07 55.12C28.30 55.27 28.54 55.41 28.79 55.54C29.03 55.66 29.29 55.77 29.55 55.86C29.81 55.96 30.07 56.04 30.34 56.10C30.61 56.17 30.89 56.22 31.17 56.25C31.44 56.28 31.86 56.29 32.00 56.30Z" fill="none" stroke="url(#bgold)" stroke-width="3.2" stroke-linecap="round" stroke-linejoin="round"/>
  <path d="M32 19 C30.5 15 34 13 33 9.5 C32.4 7.4 30.6 7 30 5.2" fill="none" stroke="url(#bgold)" stroke-width="2" stroke-linecap="round" opacity="0.85"/>
</svg>